<svg width="80" height="49" viewBox="0 0 80 49" fill="none" xmlns="http://www.w3.org/2000/svg">
<path d="M2.28882e-05 43.6625C9.10484 15.7161 27.5519 -0.673363 46.7938 0.0212364C40.8375 49.6479 2.28882e-05 43.6625 2.28882e-05 43.6625Z" fill="#93A07D"/>
<path d="M56.1949 27.2203C76.2182 26.0604 76.3539 30.4969 79.7892 41.421C73.1065 42.9722 68.1512 43.3391 64.5 42.9325C67 31.7264 57.5366 40.7921 56.1949 38.7421C53.1205 34.0448 56.1949 27.2203 56.1949 27.2203Z" fill="#93A07D"/>
<path d="M38.8277 31.8968C38.8277 31.8968 34.3368 42.9219 43.341 42.9219L51.458 42.9219C51.458 42.9219 52.9003 6.24194 48.3838 17.6295C43.8673 29.0171 38.8277 31.8968 38.8277 31.8968Z" fill="#93A07D"/>
</svg>
