<svg width="36" height="36" viewBox="0 0 36 36" fill="none" xmlns="http://www.w3.org/2000/svg">
<path d="M18 5.625C24.8344 5.625 30.375 11.1656 30.375 18C30.375 24.8344 24.8344 30.375 18 30.375C11.1656 30.375 5.625 24.8344 5.625 18C5.625 11.1656 11.1656 5.625 18 5.625ZM22.2688 23.0445C22.4961 22.3464 23.5631 15.3861 23.6942 14.0141C23.7341 13.599 23.6025 13.3228 23.346 13.1991C23.0349 13.05 22.5748 13.1242 22.0399 13.3172C21.3069 13.5816 11.9385 17.559 11.3974 17.7896C10.8844 18.0079 10.3989 18.2452 10.3989 18.5901C10.3989 18.8325 10.5429 18.9686 10.9389 19.1098C11.3507 19.2566 12.3885 19.5711 13.0022 19.7404C13.5928 19.9035 14.2639 19.7618 14.6407 19.5278C15.0396 19.2797 19.6476 16.1972 19.9777 15.9266C20.3079 15.6566 20.5717 16.0026 20.3017 16.2731C20.0317 16.5431 16.8694 19.6127 16.452 20.0379C15.9452 20.5538 16.3046 21.0887 16.6449 21.303C17.0325 21.5477 19.8225 23.4186 20.2427 23.7189C20.6629 24.0193 21.0887 24.1554 21.4791 24.1554C21.8694 24.1549 22.0748 23.6407 22.2688 23.0445Z" fill="white"/>
</svg>
