<svg width="370" height="370" viewBox="0 0 370 370" fill="none" xmlns="http://www.w3.org/2000/svg">
<path d="M353.476 170.822C349.598 151.855 342.79 133.341 334.695 116.321C320.738 86.9574 297.872 62.5744 268.62 48.1C196.84 12.58 145.04 27.38 116.92 56.24C88.8 85.1 96.94 134.68 66.6 156.14C36.26 177.6 14.8 187.22 13.32 226.44C11.84 265.66 31.08 295.26 62.16 304.88C93.24 314.5 139.86 345.58 233.1 327.82C326.34 310.06 349.28 260.48 355.2 224.96C358.16 207.089 357.139 188.752 353.476 170.822Z" fill="#9AB07F"/>
<path opacity="0.7" d="M353.476 170.822C349.598 151.855 342.79 133.341 334.695 116.321C320.738 86.9574 297.872 62.5744 268.62 48.1C196.84 12.58 145.04 27.38 116.92 56.24C88.8 85.1 96.94 134.68 66.6 156.14C36.26 177.6 14.8 187.22 13.32 226.44C11.84 265.66 31.08 295.26 62.16 304.88C93.24 314.5 139.86 345.58 233.1 327.82C326.34 310.06 349.28 260.48 355.2 224.96C358.16 207.089 357.139 188.752 353.476 170.822Z" fill="white"/>
<path d="M134.917 62.5448H128.212V92.2558H134.917V62.5448Z" fill="#C9C9C9" stroke="#263238" stroke-linecap="round" stroke-linejoin="round"/>
<path d="M134.917 67.0144H128.212V69.9152H134.917V67.0144Z" fill="white" stroke="#263238" stroke-linecap="round" stroke-linejoin="round"/>
<path d="M134.917 85.4478H128.212V88.3486H134.917V85.4478Z" fill="white" stroke="#263238" stroke-linecap="round" stroke-linejoin="round"/>
<path d="M142.739 62.5448H133.355V92.2558H142.739V62.5448Z" fill="#878787" stroke="#263238" stroke-linecap="round" stroke-linejoin="round"/>
<path d="M142.073 62.5448H135.368V92.2558H142.073V62.5448Z" fill="#C9C9C9" stroke="#263238" stroke-linecap="round" stroke-linejoin="round"/>
<path d="M142.073 67.0144H135.368V69.9152H142.073V67.0144Z" fill="white" stroke="#263238" stroke-linecap="round" stroke-linejoin="round"/>
<path d="M142.073 85.4478H135.368V88.3486H142.073V85.4478Z" fill="white" stroke="#263238" stroke-linecap="round" stroke-linejoin="round"/>
<path d="M149.887 62.5448H140.504V92.2558H149.887V62.5448Z" fill="#878787" stroke="#263238" stroke-linecap="round" stroke-linejoin="round"/>
<path d="M149.221 62.5448H142.517V92.2558H149.221V62.5448Z" fill="#C9C9C9" stroke="#263238" stroke-linecap="round" stroke-linejoin="round"/>
<path d="M149.221 67.0144H142.517V69.9152H149.221V67.0144Z" fill="white" stroke="#263238" stroke-linecap="round" stroke-linejoin="round"/>
<path d="M149.221 85.4478H142.517V88.3486H149.221V85.4478Z" fill="white" stroke="#263238" stroke-linecap="round" stroke-linejoin="round"/>
<path d="M157.035 62.5448H147.652V92.2558H157.035V62.5448Z" fill="#C9C9C9" stroke="#263238" stroke-linecap="round" stroke-linejoin="round"/>
<path d="M163.148 92.5592H178.895L183.083 88.7704H163.148V92.5592Z" fill="white" stroke="#263238" stroke-linecap="round" stroke-linejoin="round"/>
<path d="M181.3 92.7516L180.797 91.8858L162.822 91.8488L163.34 92.7516H181.3Z" fill="white" stroke="#263238" stroke-linecap="round" stroke-linejoin="round"/>
<path d="M154.031 63.1634L148.227 66.5197L163.101 92.2398L168.904 88.8835L154.031 63.1634Z" fill="#C9C9C9" stroke="#263238" stroke-linecap="round" stroke-linejoin="round"/>
<path d="M156.27 67.0223L150.466 70.3786L151.918 72.8898L157.722 69.5335L156.27 67.0223Z" fill="white" stroke="#263238" stroke-linecap="round" stroke-linejoin="round"/>
<path d="M165.504 82.9778L159.7 86.334L161.152 88.8452L166.956 85.4889L165.504 82.9778Z" fill="white" stroke="#263238" stroke-linecap="round" stroke-linejoin="round"/>
<path d="M182.98 89.0294L168.75 88.9924L153.876 63.27L168.106 63.307L182.98 89.0294Z" fill="#C9C9C9" stroke="#263238" stroke-linecap="round" stroke-linejoin="round"/>
<path d="M190.735 77.515C190.735 77.515 188.145 76.59 187.405 72.52C186.665 68.45 185.37 62.715 186.85 61.42C188.33 60.125 191.105 59.385 191.475 61.975C191.845 64.565 191.29 69.56 191.845 70.67C192.4 71.78 194.25 71.04 194.25 68.82C194.25 65.1644 192.77 61.42 193.295 57.72C194.035 52.6066 199.215 52.0442 199.77 57.72C200.081 60.8576 200.17 64.0618 200.17 67.2142C200.17 68.5092 202.39 69.2492 202.205 66.1042C202.072 63.8842 203.685 61.2942 205.905 62.0342C208.125 62.7742 206.275 72.5792 205.535 74.2442C204.795 75.9092 200.17 76.22 200.17 76.22V80.475L194.62 80.66L194.435 76.405C193.305 77.0582 192.038 77.4383 190.735 77.515Z" fill="#9AB07F" stroke="#263238" stroke-linecap="round" stroke-linejoin="round"/>
<path d="M195.73 69.4046C195.797 70.3296 195.841 70.8846 195.841 70.8846" stroke="#263238" stroke-linecap="round" stroke-linejoin="round"/>
<path d="M196.1 55.056C196.1 55.056 194.886 55.8996 194.975 58.4304C195.034 59.9696 195.33 64.232 195.56 67.3474" stroke="#263238" stroke-linecap="round" stroke-linejoin="round"/>
<path d="M198.187 63.7806L198.379 69.9744" stroke="#263238" stroke-linecap="round" stroke-linejoin="round"/>
<path d="M200.895 74C200.467 74.0667 200.034 74.1038 199.6 74.111" stroke="#263238" stroke-linecap="round" stroke-linejoin="round"/>
<path d="M204.758 63.5956C204.331 64.4057 204.105 65.3068 204.099 66.2226C204.099 67.7026 204.196 71.854 203.256 72.9788C203.026 73.2314 202.747 73.4331 202.434 73.5708" stroke="#263238" stroke-linecap="round" stroke-linejoin="round"/>
<path d="M188.7 71.9207C188.922 73.0332 189.456 74.0598 190.239 74.8807C190.702 75.2513 191.274 75.4606 191.867 75.4766C192.46 75.4927 193.042 75.3146 193.525 74.9695" stroke="#263238" stroke-linecap="round" stroke-linejoin="round"/>
<path d="M188.522 61.9084C188.522 61.9084 186.65 61.9084 187.301 65.1866C187.583 66.5704 187.842 68.2724 188.175 69.8782" stroke="#263238" stroke-linecap="round" stroke-linejoin="round"/>
<path d="M195.56 74.3848L195.937 78.4178" stroke="#263238" stroke-linecap="round" stroke-linejoin="round"/>
<path d="M205.165 78.81L204.492 84.3304L204.033 88.0896L203.5 92.463H190.187L189.655 88.0896L189.196 84.3304L188.522 78.81H205.165Z" fill="white" stroke="#263238" stroke-linecap="round" stroke-linejoin="round"/>
<path d="M204.492 84.3304L204.033 88.0896H189.655L189.196 84.3304H204.492Z" fill="#9AB07F" stroke="#263238" stroke-linecap="round" stroke-linejoin="round"/>
<path d="M212.476 92.463H127.028V98.124H212.476V92.463Z" fill="white" stroke="#263238" stroke-linecap="round" stroke-linejoin="round"/>
<path d="M212.476 92.463H192.777V98.124H212.476V92.463Z" fill="white" stroke="#263238" stroke-linecap="round" stroke-linejoin="round"/>
<path d="M190.861 98.1462C200.015 101.521 198.364 107.899 198.364 107.899H207.03V98.1462H190.861Z" fill="#919191" stroke="#263238" stroke-linecap="round" stroke-linejoin="round"/>
<path d="M193.784 98.1462C202.93 101.521 201.28 107.899 201.28 107.899H209.953V98.1462H193.784Z" fill="white" stroke="#263238" stroke-linecap="round" stroke-linejoin="round"/>
<path d="M132.216 98.1462C141.37 101.521 139.719 107.899 139.719 107.899H148.385V98.1462H132.216Z" fill="#919191" stroke="#263238" stroke-linecap="round" stroke-linejoin="round"/>
<path d="M135.139 98.1462C144.285 101.521 142.635 107.899 142.635 107.899H151.308V98.1462H135.139Z" fill="white" stroke="#263238" stroke-linecap="round" stroke-linejoin="round"/>
<path d="M331.55 63.603H254.915V169.985H331.55V63.603Z" fill="#919191" stroke="#263238" stroke-linecap="round" stroke-linejoin="round"/>
<path d="M328.227 68.2206H258.245V165.368H328.227V68.2206Z" fill="#9AB07F"/>
<path opacity="0.5" d="M328.227 68.2206H258.245V165.368H328.227V68.2206Z" fill="white"/>
<path d="M273.63 157.99C271.754 160.852 269.383 163.358 266.63 165.39H328.227V68.2206H316.876L315.396 68.6868C304.296 72.187 292.826 82.3176 286.321 100.729" stroke="#263238" stroke-linecap="round" stroke-linejoin="round"/>
<path d="M285.24 103.955C282.656 112.736 281.228 121.815 280.993 130.965C280.586 141.947 278.247 149.843 275.125 155.518" stroke="#263238" stroke-linecap="round" stroke-linejoin="round"/>
<path d="M321.382 92.8774C311.207 98.7974 299.36 108.743 294.934 123.994C292.559 132.134 294.786 139.475 299.189 145.758" stroke="#263238" stroke-linecap="round" stroke-linejoin="round"/>
<path d="M301.572 148.821C307.677 155.97 316.372 161.594 323.41 165.375H328.227V89.2885C326.851 89.9323 325.385 90.6575 323.861 91.5085" stroke="#263238" stroke-linecap="round" stroke-linejoin="round"/>
<path d="M269.878 93.5508C275.236 82.6284 275.798 73.963 275.184 68.2206H258.26V112.665C260.761 109.106 263.825 104.347 267.525 97.9686C267.754 97.5764 267.969 97.2286 268.183 96.8142" stroke="#263238" stroke-linecap="round" stroke-linejoin="round"/>
<path d="M276.508 135.62C275.687 141 273.215 144.907 270.3 144.907C266.711 144.907 263.795 138.987 263.795 131.661C263.795 124.335 266.711 118.415 270.3 118.415C273.889 118.415 276.804 124.335 276.804 131.661" stroke="#263238" stroke-linecap="round" stroke-linejoin="round"/>
<path d="M279.594 104.473C279.594 107.293 278.351 109.587 276.805 109.587C275.258 109.587 274.022 107.293 274.022 104.473C274.022 101.654 275.265 99.3599 276.805 99.3599C278.344 99.3599 279.594 101.646 279.594 104.473Z" stroke="#263238" stroke-linecap="round" stroke-linejoin="round"/>
<path d="M315.099 126.074C317.786 127.354 319.539 129.589 319.539 132.127C319.539 136.101 315.173 139.327 309.779 139.327C304.384 139.327 300.026 136.101 300.026 132.127C300.026 128.153 304.392 124.919 309.779 124.919C310.638 124.919 311.496 125.003 312.339 125.171" stroke="#263238" stroke-linecap="round" stroke-linejoin="round"/>
<path d="M313.893 132.127C313.893 133.792 312.065 135.146 309.801 135.146C307.537 135.146 305.709 133.792 305.709 132.127C305.709 130.462 307.544 129.1 309.801 129.1C312.058 129.1 313.893 130.455 313.893 132.127Z" stroke="#263238" stroke-linecap="round" stroke-linejoin="round"/>
<path d="M320.494 113.768C320.494 116.076 318.207 117.949 315.381 117.949C312.554 117.949 310.267 116.076 310.267 113.768C310.267 111.459 312.554 109.587 315.381 109.587C318.207 109.587 320.494 111.459 320.494 113.768Z" stroke="#263238" stroke-linecap="round" stroke-linejoin="round"/>
<path d="M283.546 90.5316C285.471 90.5316 287.031 86.6818 287.031 81.9328C287.031 77.1839 285.471 73.334 283.546 73.334C281.621 73.334 280.06 77.1839 280.06 81.9328C280.06 86.6818 281.621 90.5316 283.546 90.5316Z" stroke="#263238" stroke-linecap="round" stroke-linejoin="round"/>
<path d="M293.077 155.829C293.077 156.795 292.791 157.739 292.254 158.543C291.717 159.346 290.955 159.972 290.062 160.341C289.17 160.711 288.188 160.808 287.24 160.619C286.293 160.431 285.423 159.966 284.74 159.283C284.057 158.6 283.591 157.729 283.403 156.782C283.214 155.835 283.311 154.853 283.681 153.96C284.051 153.068 284.677 152.305 285.48 151.768C286.283 151.232 287.227 150.945 288.193 150.945C289.488 150.945 290.731 151.46 291.647 152.376C292.563 153.292 293.077 154.534 293.077 155.829Z" stroke="#263238" stroke-linecap="round" stroke-linejoin="round"/>
<path d="M315.847 83.324C315.848 83.9233 315.672 84.5094 315.34 85.0083C315.008 85.5071 314.535 85.8962 313.982 86.1262C313.429 86.3562 312.819 86.4168 312.232 86.3002C311.644 86.1837 311.104 85.8953 310.68 85.4715C310.256 85.0478 309.968 84.5079 309.851 83.9201C309.735 83.3323 309.796 82.7231 310.026 82.1698C310.255 81.6164 310.645 81.1438 311.143 80.8118C311.642 80.4798 312.228 80.3034 312.828 80.3048C313.628 80.3068 314.395 80.6255 314.96 81.1913C315.526 81.7571 315.845 82.5239 315.847 83.324Z" stroke="#263238" stroke-linecap="round" stroke-linejoin="round"/>
<path d="M296.792 104.703C296.793 105.025 296.699 105.34 296.521 105.609C296.343 105.878 296.089 106.088 295.792 106.212C295.495 106.336 295.167 106.37 294.851 106.308C294.535 106.246 294.244 106.091 294.015 105.864C293.787 105.636 293.631 105.346 293.568 105.03C293.504 104.714 293.536 104.387 293.659 104.089C293.782 103.791 293.991 103.536 294.259 103.357C294.527 103.178 294.842 103.082 295.164 103.082C295.377 103.081 295.589 103.122 295.786 103.203C295.984 103.284 296.163 103.404 296.315 103.554C296.466 103.705 296.586 103.884 296.668 104.081C296.75 104.278 296.792 104.489 296.792 104.703Z" stroke="#263238" stroke-linecap="round" stroke-linejoin="round"/>
<path d="M328.227 68.2206H258.245V165.368H328.227V68.2206Z" stroke="#263238" stroke-linecap="round" stroke-linejoin="round"/>
<path d="M213.853 206.749H194.842V213.904H213.853V206.749Z" fill="#263238" stroke="#263238" stroke-linecap="round" stroke-linejoin="round"/>
<path d="M239.36 207.829H163.695L167.277 149.177H242.949L239.36 207.829Z" fill="#919191" stroke="#263238" stroke-linecap="round" stroke-linejoin="round"/>
<path d="M237.192 207.829H161.527L165.109 149.177H240.774L237.192 207.829Z" fill="#263238" stroke="#263238" stroke-linecap="round" stroke-linejoin="round"/>
<path d="M233.189 204.566H165.93L169.112 152.433H236.371L233.189 204.566Z" fill="white" stroke="#263238" stroke-linecap="round" stroke-linejoin="round"/>
<path d="M213.623 196.796H167.936L170.385 156.621H216.08L213.623 196.796Z" fill="#919191" stroke="#263238" stroke-linecap="round" stroke-linejoin="round"/>
<path d="M185.962 179.539C185.962 179.539 176.446 183.305 176.386 184.319C176.327 185.333 174.462 196.796 174.462 196.796H202.76L200.377 183.594L189.906 179.243L185.962 179.539Z" fill="white" stroke="#263238" stroke-linecap="round" stroke-linejoin="round"/>
<path d="M186.243 177.215C185.527 177.404 184.862 177.75 184.297 178.229C183.557 178.969 182.654 181.418 182.654 181.418L182.617 184.319L186.369 182.292L190.18 182.04L193.747 185.377L194.206 180.301C194.206 180.301 193.658 177.4 192.504 177.252C191.349 177.104 186.243 177.215 186.243 177.215Z" fill="white" stroke="#263238" stroke-linecap="round" stroke-linejoin="round"/>
<path d="M186.125 174.462L185.962 179.539L188.204 183.165L191.912 179.391L192.489 174.751L186.125 174.462Z" fill="white" stroke="#263238" stroke-linecap="round" stroke-linejoin="round"/>
<path d="M195.271 168.528C195.005 172.783 192.178 177.94 189.077 177.94C185.977 177.94 183.779 172.76 184.038 168.528C184.297 164.295 186.998 160.824 190.121 160.824C193.244 160.824 195.53 164.28 195.271 168.528Z" fill="white" stroke="#263238" stroke-linecap="round" stroke-linejoin="round"/>
<path d="M183.986 169.09C183.986 169.09 182.987 166.485 182.573 168.513C182.158 170.54 184.201 172.716 184.201 172.716L183.986 169.09Z" fill="white" stroke="#263238" stroke-linecap="round" stroke-linejoin="round"/>
<path d="M195.271 168.528C195.271 168.528 197.721 167.499 197.003 169.675C196.821 170.29 196.503 170.857 196.072 171.334C195.642 171.81 195.11 172.184 194.516 172.427L195.271 168.528Z" fill="white" stroke="#263238" stroke-linecap="round" stroke-linejoin="round"/>
<path d="M188.774 169.09C188.794 168.829 188.758 168.566 188.671 168.319C188.584 168.072 188.446 167.846 188.266 167.656C188.086 167.465 187.869 167.314 187.628 167.212C187.387 167.109 187.127 167.059 186.865 167.062C186.319 167.077 185.798 167.291 185.401 167.665C185.004 168.039 184.759 168.547 184.711 169.09C184.692 169.352 184.727 169.614 184.814 169.862C184.902 170.109 185.04 170.336 185.219 170.527C185.398 170.718 185.616 170.87 185.857 170.973C186.098 171.076 186.358 171.128 186.621 171.125C187.167 171.111 187.689 170.895 188.086 170.519C188.484 170.144 188.729 169.635 188.774 169.09Z" fill="white" stroke="#263238" stroke-linecap="round" stroke-linejoin="round"/>
<path d="M193.702 169.09L195.915 168.513" stroke="#263238" stroke-linecap="round" stroke-linejoin="round"/>
<path d="M193.702 169.09C193.722 168.829 193.687 168.568 193.6 168.321C193.513 168.075 193.376 167.849 193.197 167.658C193.018 167.468 192.802 167.316 192.561 167.214C192.321 167.111 192.062 167.06 191.801 167.062C191.254 167.075 190.731 167.289 190.332 167.663C189.934 168.037 189.687 168.545 189.64 169.09C189.62 169.352 189.655 169.614 189.743 169.862C189.83 170.109 189.968 170.336 190.147 170.527C190.327 170.718 190.544 170.87 190.785 170.973C191.027 171.076 191.287 171.128 191.549 171.125C192.095 171.111 192.617 170.895 193.015 170.519C193.412 170.144 193.657 169.635 193.702 169.09Z" fill="white" stroke="#263238" stroke-linecap="round" stroke-linejoin="round"/>
<path d="M189.618 159.951C189.618 159.951 187.398 158.797 185.733 159.522C184.068 160.247 182.839 164.162 182.921 165.175C183.182 166.504 183.538 167.812 183.986 169.09L185.747 164.014L190.365 161.986L189.618 159.951Z" fill="#263238" stroke="#263238" stroke-linecap="round" stroke-linejoin="round"/>
<path d="M187.383 160.972C187.383 160.972 191.038 158.071 193.998 159.492C194.904 159.886 195.653 160.571 196.126 161.438C196.599 162.305 196.77 163.305 196.611 164.28C196.566 165.02 196.507 168.335 196.507 168.335L194.746 168.631L193.88 165.901C192.88 165.505 191.906 165.045 190.964 164.524C190.964 164.524 187.05 164.014 187.383 160.972Z" fill="#263238" stroke="#263238" stroke-linecap="round" stroke-linejoin="round"/>
<path d="M188.774 169.09L188.515 173.301H189.529" fill="white"/>
<path d="M188.774 169.09L188.515 173.301H189.529" stroke="#263238" stroke-linecap="round" stroke-linejoin="round"/>
<path d="M187.982 174.892H190.158" stroke="#263238" stroke-linecap="round" stroke-linejoin="round"/>
<path d="M188.204 183.165L187.398 196.359" stroke="#263238" stroke-linecap="round" stroke-linejoin="round"/>
<path d="M200.362 183.594C200.362 183.594 197.336 190.417 197.247 191.867C197.158 193.318 196.818 196.507 196.818 196.507" stroke="#263238" stroke-linecap="round" stroke-linejoin="round"/>
<path d="M176.386 184.319C176.386 184.319 179.398 189.544 179.79 190.239C180.183 190.935 179.702 196.477 179.702 196.477" stroke="#263238" stroke-linecap="round" stroke-linejoin="round"/>
<path d="M202.383 188.53L203.382 184.031L205.084 182.292L206.689 179.679H207.415L206.527 182.44L208.776 181.13L210.227 178.814L211.07 179.243L208.998 184.615L205.713 186.206L205.143 188.382L202.383 188.53Z" fill="white" stroke="#263238" stroke-linecap="round" stroke-linejoin="round"/>
<path d="M205.195 196.796L205.468 187.805L202.168 187.22L199.563 196.796H205.195Z" fill="white" stroke="#263238" stroke-linecap="round" stroke-linejoin="round"/>
<path d="M213.423 200.133H167.728L167.936 196.796H213.623L213.423 200.133Z" fill="white" stroke="#263238" stroke-linecap="round" stroke-linejoin="round"/>
<path d="M169.593 198.105H211.514" stroke="#263238" stroke-linecap="round" stroke-linejoin="round"/>
<path d="M233.263 167.344H217.886L218.537 156.754H233.914L233.263 167.344Z" fill="#9AB07F" stroke="#263238" stroke-linecap="round" stroke-linejoin="round"/>
<path d="M233.263 167.344H217.886L217.997 165.605H233.374L233.263 167.344Z" fill="white" stroke="#263238" stroke-linecap="round" stroke-linejoin="round"/>
<path d="M228.297 161.431L224.301 159.041L224.013 163.821L228.297 161.431Z" fill="white" stroke="#263238" stroke-linecap="round" stroke-linejoin="round"/>
<path d="M232.264 183.735H216.887L217.53 173.153H232.908L232.264 183.735Z" fill="#9AB07F" stroke="#263238" stroke-linecap="round" stroke-linejoin="round"/>
<path d="M232.264 183.735H216.887L216.998 181.996H232.367L232.264 183.735Z" fill="white" stroke="#263238" stroke-linecap="round" stroke-linejoin="round"/>
<path d="M227.298 177.829L223.302 175.439L223.014 180.22L227.298 177.829Z" fill="white" stroke="#263238" stroke-linecap="round" stroke-linejoin="round"/>
<path d="M231.257 200.133H215.888L216.531 189.544H231.909L231.257 200.133Z" fill="#9AB07F" stroke="#263238" stroke-linecap="round" stroke-linejoin="round"/>
<path d="M231.257 200.133H215.888L215.991 198.394H231.368L231.257 200.133Z" fill="white" stroke="#263238" stroke-linecap="round" stroke-linejoin="round"/>
<path d="M226.292 194.22L222.303 191.83L222.007 196.611L226.292 194.22Z" fill="white" stroke="#263238" stroke-linecap="round" stroke-linejoin="round"/>
<path d="M217.93 169.09H232.863" stroke="#263238" stroke-linecap="round" stroke-linejoin="round"/>
<path d="M217.819 170.836H232.76" stroke="#263238" stroke-linecap="round" stroke-linejoin="round"/>
<path d="M216.916 185.629H231.857" stroke="#263238" stroke-linecap="round" stroke-linejoin="round"/>
<path d="M216.813 187.368H231.753" stroke="#263238" stroke-linecap="round" stroke-linejoin="round"/>
<path d="M210.293 213.904H199.06C199.06 212.784 199.505 211.709 200.298 210.917C201.09 210.124 202.165 209.679 203.285 209.679H206.053C207.174 209.679 208.248 210.124 209.041 210.917C209.833 211.709 210.278 212.784 210.278 213.904H210.293Z" fill="white" stroke="#263238" stroke-linecap="round" stroke-linejoin="round"/>
<path d="M193.71 211.603H138.787V213.904H193.71V211.603Z" fill="#919191" stroke="#263238" stroke-linecap="round" stroke-linejoin="round"/>
<path d="M193.695 211.603H179.894V213.904H193.695V211.603Z" fill="white" stroke="#263238" stroke-linecap="round" stroke-linejoin="round"/>
<path d="M116.276 101.106V57.3796" stroke="#263238" stroke-linecap="round" stroke-linejoin="round"/>
<path d="M116.276 319.946V105.457" stroke="#263238" stroke-linecap="round" stroke-linejoin="round"/>
<path d="M216.132 229.252L222.792 319.036C222.826 319.364 222.985 319.666 223.234 319.881C223.484 320.096 223.806 320.208 224.135 320.194C224.464 320.18 224.776 320.041 225.006 319.805C225.236 319.569 225.368 319.255 225.374 318.925L224.375 229.252H216.132Z" fill="#919191" stroke="#263238" stroke-linecap="round" stroke-linejoin="round"/>
<path d="M221.156 229.252L224.671 320.072C224.879 319.961 225.052 319.796 225.172 319.594C225.292 319.391 225.354 319.16 225.352 318.925L224.375 229.252H221.156Z" fill="white" stroke="#263238" stroke-linecap="round" stroke-linejoin="round"/>
<path d="M257.994 229.252L264.654 319.036C264.688 319.364 264.846 319.666 265.096 319.881C265.346 320.096 265.668 320.208 265.997 320.194C266.326 320.18 266.638 320.041 266.868 319.805C267.098 319.569 267.23 319.255 267.236 318.925L266.237 229.252H257.994Z" fill="#919191" stroke="#263238" stroke-linecap="round" stroke-linejoin="round"/>
<path d="M262.626 229.252L266.726 319.939C266.879 319.819 267.003 319.665 267.088 319.489C267.173 319.313 267.216 319.12 267.214 318.925L266.237 229.252H262.626Z" fill="white" stroke="#263238" stroke-linecap="round" stroke-linejoin="round"/>
<path d="M147.645 230.229L140.985 319.029C140.962 319.355 140.817 319.66 140.578 319.882C140.339 320.105 140.024 320.228 139.697 320.228C139.526 320.23 139.356 320.199 139.197 320.136C139.037 320.073 138.892 319.979 138.77 319.859C138.647 319.739 138.55 319.596 138.483 319.438C138.416 319.281 138.381 319.111 138.38 318.94L139.364 229.992L147.645 230.229Z" fill="#263238" stroke="#263238" stroke-linecap="round" stroke-linejoin="round"/>
<path d="M105.82 230.229L99.16 319.029C99.1375 319.355 98.9919 319.66 98.7529 319.882C98.5138 320.105 98.199 320.228 97.8724 320.228C97.7017 320.227 97.5329 320.192 97.3757 320.126C97.2184 320.059 97.0759 319.962 96.9562 319.841C96.8366 319.719 96.7421 319.575 96.6784 319.416C96.6147 319.258 96.5828 319.089 96.5848 318.918L97.569 229.97L105.82 230.229Z" fill="#263238" stroke="#263238" stroke-linecap="round" stroke-linejoin="round"/>
<path d="M268.687 215.991H95.0604V229.977H268.687V215.991Z" fill="#919191" stroke="#263238" stroke-linecap="round" stroke-linejoin="round"/>
<path d="M268.687 215.991H218.929V229.977H268.687V215.991Z" fill="white" stroke="#263238" stroke-linecap="round" stroke-linejoin="round"/>
<path d="M268.687 218.211H95.0604V222.067H268.687V218.211Z" fill="#263238" stroke="#263238" stroke-linecap="round" stroke-linejoin="round"/>
<path d="M271.188 213.986H92.5592V218.663H271.188V213.986Z" fill="#919191" stroke="#263238" stroke-linecap="round" stroke-linejoin="round"/>
<path d="M271.18 213.986H222.126V218.663H271.18V213.986Z" fill="white" stroke="#263238" stroke-linecap="round" stroke-linejoin="round"/>
<path d="M218.515 127.28H194.405C193.149 127.28 191.945 127.779 191.057 128.667C190.168 129.555 189.669 130.76 189.669 132.016V140.896C189.668 141.518 189.79 142.135 190.028 142.71C190.266 143.285 190.614 143.807 191.054 144.247C191.494 144.687 192.017 145.036 192.592 145.274C193.167 145.511 193.783 145.633 194.405 145.632H207.03L202.301 158.841L211.359 145.632H218.515C219.137 145.633 219.753 145.511 220.328 145.274C220.903 145.036 221.426 144.687 221.866 144.247C222.306 143.807 222.654 143.285 222.892 142.71C223.13 142.135 223.252 141.518 223.251 140.896V132.016C223.251 130.76 222.752 129.555 221.864 128.667C220.975 127.779 219.771 127.28 218.515 127.28Z" fill="white" stroke="#263238" stroke-linecap="round" stroke-linejoin="round"/>
<path d="M200 138.476C200.952 138.476 201.724 137.704 201.724 136.752C201.724 135.8 200.952 135.028 200 135.028C199.048 135.028 198.276 135.8 198.276 136.752C198.276 137.704 199.048 138.476 200 138.476Z" fill="#263238"/>
<path d="M206.46 138.476C207.412 138.476 208.184 137.704 208.184 136.752C208.184 135.8 207.412 135.028 206.46 135.028C205.508 135.028 204.736 135.8 204.736 136.752C204.736 137.704 205.508 138.476 206.46 138.476Z" fill="#263238"/>
<path d="M214.637 136.752C214.637 136.411 214.536 136.077 214.346 135.793C214.156 135.51 213.886 135.289 213.571 135.158C213.255 135.028 212.908 134.994 212.574 135.062C212.239 135.129 211.932 135.294 211.691 135.535C211.45 135.777 211.287 136.085 211.221 136.42C211.155 136.755 211.19 137.102 211.322 137.417C211.454 137.732 211.676 138.001 211.96 138.189C212.245 138.378 212.579 138.478 212.92 138.476C213.146 138.476 213.37 138.432 213.579 138.345C213.788 138.258 213.977 138.131 214.137 137.971C214.296 137.811 214.423 137.62 214.508 137.411C214.594 137.202 214.638 136.978 214.637 136.752Z" fill="#263238"/>
<path d="M333 320.42H352.98" stroke="#263238" stroke-linecap="round" stroke-linejoin="round"/>
<path d="M17.76 320.42H322.64" stroke="#263238" stroke-linecap="round" stroke-linejoin="round"/>
<path d="M135.154 189.647C132.985 185.947 126.607 171.702 126.607 171.702C126.799 170.18 127.111 168.676 127.539 167.203C128.064 165.723 129.389 161.239 129.123 160.306C128.856 159.374 125.016 157.657 124.623 157.524C124.231 157.391 125.149 155.141 123.691 154.608C122.233 154.075 121.708 154.875 121.708 154.875L121.153 158.575L119.451 161.239C118.742 160.7 118.001 160.206 117.231 159.759C116.039 159.093 113.257 158.826 113.124 159.892C112.991 160.957 115.344 161.875 116.165 162.541C116.987 163.207 118.023 166.382 118.955 167.314C119.802 168.239 120.598 169.21 121.338 170.222L121.871 171.946C121.871 171.946 123.684 189.403 123.898 193.747C124.113 198.091 124.764 209.583 126.066 211.314C127.369 213.046 127.591 214.141 131.246 212.839C134.902 211.536 135.583 209.797 136.426 205.89C137.27 201.983 137.322 193.332 135.154 189.647Z" fill="white" stroke="#263238" stroke-linecap="round" stroke-linejoin="round"/>
<path d="M136.456 205.912C137.322 202.013 137.322 193.332 135.154 189.632C134.917 189.225 134.628 188.7 134.303 188.078C129.396 186.65 124.734 188.981 124.734 188.981L123.55 189.499C123.706 191.312 123.824 192.829 123.869 193.754C124.091 198.091 124.734 209.59 126.037 211.322C127.339 213.053 127.561 214.149 131.217 212.846C134.872 211.544 135.583 209.82 136.456 205.912Z" fill="#9AB07F" stroke="#263238" stroke-linecap="round" stroke-linejoin="round"/>
<path d="M119.332 130.98C119.867 132.943 120.165 134.963 120.22 136.996C120.22 139.89 119.332 141.673 120.672 142.561C122.011 143.449 123.121 143.456 122.892 145.24C122.804 146.224 122.414 147.157 121.774 147.911C121.774 147.911 121.33 157.043 120.886 157.938C120.442 158.834 114.648 157.716 113.309 157.487C111.969 157.257 108.188 159.048 105.731 154.149C103.274 149.251 105.287 141.895 109.742 138.106C112.806 135.557 116.008 133.178 119.332 130.98Z" fill="white" stroke="#263238" stroke-linecap="round" stroke-linejoin="round"/>
<path d="M120.22 136.959C120.22 136.959 119.014 136.056 118.378 137.64" stroke="#263238" stroke-linecap="round" stroke-linejoin="round"/>
<path d="M119.14 140.644C118.967 141.542 119.023 142.468 119.303 143.338" stroke="#263238" stroke-linecap="round" stroke-linejoin="round"/>
<path d="M121.36 151.108C121.162 151.171 120.953 151.193 120.747 151.17C120.54 151.147 120.341 151.082 120.162 150.977C119.982 150.872 119.827 150.731 119.706 150.562C119.585 150.394 119.5 150.201 119.458 149.998" stroke="#263238" stroke-linecap="round" stroke-linejoin="round"/>
<path d="M123.883 192.992C123.883 192.992 123.143 196.381 122.485 198.172C121.826 199.963 110.016 203.248 104.873 203.929C101.485 204.352 98.075 204.577 94.6608 204.603L94.9864 213.971C94.9864 213.971 104.947 214.171 105.65 213.971C106.353 213.771 123.121 206.275 123.121 206.275L130.358 205.328C130.358 205.328 133.4 204.588 133.518 202.227C133.637 199.867 130.95 193.155 129.729 192.111C128.508 191.068 125.933 188.3 124.387 190.002C122.84 191.704 123.883 192.992 123.883 192.992Z" fill="white" stroke="#263238" stroke-linecap="round" stroke-linejoin="round"/>
<path d="M101.676 209.812C101.676 205.764 102.712 205.661 103.896 204.055C100.837 204.397 97.7614 204.58 94.683 204.603L94.4388 213.201C94.4388 213.201 99.8926 213.705 103.215 213.941C102.941 214.363 101.676 212.417 101.676 209.812Z" fill="#9AB07F" stroke="#263238" stroke-linecap="round" stroke-linejoin="round"/>
<path d="M133.836 228.016C129.896 223.588 124.888 220.243 119.288 218.3L106.294 223.842C105.285 221.365 103.945 219.035 102.312 216.916L99.8852 213.956L101.447 205.468C101.447 205.468 110.8 199.06 112.006 196.285L112.051 196.196C113.93 199.104 122.085 211.692 123.617 212.913C125.349 214.304 130.543 214.474 132.793 212.395C135.043 210.315 136.086 208.932 135.568 205.816C135.568 205.816 132.105 198.364 130.196 195.071C128.286 191.778 124.135 180.005 122.056 176.364C120.576 173.759 119.961 171.924 118.911 170.696C118.181 169.439 117.32 168.263 116.343 167.188C114.263 164.968 108.543 164.413 107.33 163.895C106.116 163.377 105.946 163.2 99.0194 161.128C92.093 159.056 84.2934 157.835 78.7508 162.164C78.7508 162.164 71.3064 170.999 68.3908 185.548C65.4752 200.096 65.268 214.822 64.9276 217.419C64.5872 220.017 61.6346 232.663 60.7688 239.938C59.903 247.212 67.4954 254.516 72.1722 256.78C76.849 259.044 96.94 259.377 108.721 256.78C120.502 254.183 139.209 242.402 139.209 242.402C139.209 242.402 139.897 235.12 133.836 228.016Z" fill="#9AB07F" stroke="#263238" stroke-linecap="round" stroke-linejoin="round"/>
<path d="M103.208 196.011L100.832 195.93" stroke="#263238" stroke-linecap="round" stroke-linejoin="round"/>
<path d="M102.312 192.23C105.64 193.351 108.88 194.716 112.006 196.315L105.909 196.107" stroke="#263238" stroke-linecap="round" stroke-linejoin="round"/>
<path d="M134.495 196.603C135.179 197.677 135.599 198.896 135.723 200.163C135.723 201.798 135.997 203.988 135.316 203.308C134.636 202.627 134.354 200.296 134.354 200.296L134.495 196.603Z" fill="white" stroke="#263238" stroke-linecap="round" stroke-linejoin="round"/>
<path d="M130.395 194.694C130.395 194.694 132.956 193.303 134.095 194.975C135.235 196.648 134.932 199.985 134.095 201.635C133.259 203.285 132.305 201.709 132.423 200.244C132.541 198.779 130.395 194.694 130.395 194.694Z" fill="white" stroke="#263238" stroke-linecap="round" stroke-linejoin="round"/>
<path d="M129.433 192.918C129.433 192.918 132.001 191.527 133.133 193.199C134.266 194.872 133.962 198.202 133.133 199.859C132.305 201.517 131.343 199.933 131.461 198.468C131.579 197.003 129.433 192.918 129.433 192.918Z" fill="white" stroke="#263238" stroke-linecap="round" stroke-linejoin="round"/>
<path d="M128.257 191.001C128.257 191.001 130.825 189.61 131.957 191.283C133.089 192.955 132.793 196.292 131.957 197.943C131.121 199.593 130.166 198.017 130.284 196.551C130.403 195.086 128.257 191.001 128.257 191.001Z" fill="white" stroke="#263238" stroke-linecap="round" stroke-linejoin="round"/>
<path d="M121.76 124.031C121.802 126.691 121.116 129.311 119.776 131.609C115.988 137.403 112.428 136.73 110.896 141.414C109.365 146.098 107.078 150.96 109.52 153.668C111.962 156.377 113.96 154.778 113.96 154.778C113.96 154.778 115.521 158.789 111.511 162.8C107.5 166.811 100.596 165.249 98.8122 164.583C97.6892 164.151 96.6386 163.549 95.6968 162.8C95.6968 162.8 94.5794 165.923 89.0368 165.923C83.4942 165.923 77.1968 162.134 77.1968 155.222C77.1968 148.311 80.9782 143.641 81.8736 140.963C82.769 138.284 80.3122 130.048 84.0936 124.927C87.875 119.806 93.7136 116.047 98.1536 116.047C102.594 116.047 111.259 118.481 111.296 118.496C111.881 118.814 115.625 117.29 116.639 117.357C120.361 117.564 121.715 120.62 121.76 124.031Z" fill="#263238" stroke="#263238" stroke-linecap="round" stroke-linejoin="round"/>
<path d="M107.3 155.726C108.108 155.833 108.927 155.833 109.735 155.726" stroke="#919191" stroke-linecap="round" stroke-linejoin="round"/>
<path d="M118.548 127.916C118.197 129.9 117.465 131.797 116.395 133.503C112.931 138.942 108.995 140.903 104.281 146.083C101.254 149.436 101.824 152.78 104.281 154.534" stroke="#919191" stroke-linecap="round" stroke-linejoin="round"/>
<path d="M118.615 122.137C118.759 122.953 118.831 123.78 118.829 124.609" stroke="#919191" stroke-linecap="round" stroke-linejoin="round"/>
<path d="M113.96 127.324C113.96 127.324 113.22 134.983 110.008 139.431C106.797 143.878 100.388 146.091 100.618 150.797" stroke="#919191" stroke-linecap="round" stroke-linejoin="round"/>
<path d="M143.782 255.529C143.782 255.529 148.4 279.254 152.351 290.783C156.303 302.312 160.254 312.857 161.231 313.849C162.208 314.84 164.857 318.459 164.857 318.459C163.633 319.437 162.137 320.013 160.573 320.109C158.264 320.109 155.304 317.149 152.662 315.492C150.02 313.834 149.702 312.857 144.426 310.881C139.15 308.906 143.442 303.637 144.759 300.995C145.52 299.569 145.97 297.998 146.076 296.385C143.982 288.965 140.269 282.101 135.205 276.286C126.984 267.066 125.334 245.68 125.334 245.68L141.148 239.76L143.782 255.529Z" fill="white" stroke="#263238" stroke-linecap="round" stroke-linejoin="round"/>
<path d="M160.58 312.665L159.625 312.857C159.625 312.857 154.024 305.28 149.746 302.645C148.288 301.639 146.574 301.069 144.803 301.002C143.479 303.637 139.201 308.906 144.47 310.881C149.739 312.857 150.072 313.841 152.706 315.492C155.341 317.142 158.308 320.109 160.617 320.109C162.181 320.013 163.677 319.437 164.902 318.459C164.902 318.459 162.26 314.833 161.276 313.849C160.995 313.485 160.762 313.087 160.58 312.665Z" fill="#9AB07F" stroke="#263238" stroke-linecap="round" stroke-linejoin="round"/>
<path d="M157.923 319.169C155.319 317.371 152.965 313.375 148.725 310.881C144.87 308.617 142.887 308.528 142.065 308.698C142.266 309.227 142.59 309.7 143.009 310.08C143.429 310.459 143.932 310.734 144.478 310.881C149.754 312.857 150.079 313.841 152.714 315.492C154.379 316.557 156.214 318.2 157.923 319.169Z" fill="#9AB07F" stroke="#263238" stroke-linecap="round" stroke-linejoin="round"/>
<path d="M160.58 320.109C160.411 320.103 160.243 320.086 160.077 320.057C160.243 320.089 160.411 320.106 160.58 320.109Z" fill="#9AB07F" stroke="#263238" stroke-linecap="round" stroke-linejoin="round"/>
<path d="M114.419 219.78C114.419 219.78 130.255 214.171 131.735 217.871C133.215 221.571 139.993 235.372 137.522 241.04C135.05 246.709 117.675 224.76 115.203 224.287C112.732 223.813 114.13 221.438 114.419 219.78Z" fill="white" stroke="#263238" stroke-linecap="round" stroke-linejoin="round"/>
<path d="M129.937 227.01C129.937 227.01 147.941 225.53 151.397 228.741C154.852 231.953 143.012 270.426 136.597 282.51C126.54 301.409 129.581 306.36 129.581 306.36C129.581 306.36 130.321 309.32 135.257 314.012C140.193 318.703 141.673 319.436 139.941 320.176C138.21 320.916 130.817 320.176 130.077 319.68C129.337 319.184 123.913 314.752 118.977 313.272C114.041 311.792 114.781 310.8 117.001 306.36C119.221 301.92 118.977 305.62 121.441 297.976C124.395 288.556 126.729 278.952 128.427 269.227C129.737 261.301 131.735 252.599 131.172 244.54L129.937 227.01Z" fill="white" stroke="#263238" stroke-linecap="round" stroke-linejoin="round"/>
<path d="M143.123 239.057C141.238 234.508 137.995 230.653 133.836 228.016C125.963 222.992 119.288 218.3 119.288 218.3L106.294 223.843C106.294 223.843 109.461 229.215 93.1808 231.931C80.6452 234.018 69.1382 230.991 62.9296 227.343C62.0638 231.642 61.161 236.423 60.7096 239.923C59.8438 247.197 67.4658 254.471 72.1426 256.728C76.8194 258.985 114.5 263.655 124.646 257.135C143.123 245.317 143.123 239.057 143.123 239.057Z" fill="#263238" stroke="#263238" stroke-linecap="round" stroke-linejoin="round"/>
<path d="M104.821 227.92C103.082 229.348 99.6928 230.88 93.1808 231.938C80.6452 234.025 69.1382 230.998 62.9296 227.35C62.7076 228.453 62.4856 229.57 62.2636 230.717C66.5186 233.277 75.4578 237.614 85.5366 236.378C97.5616 234.905 102.904 231.62 104.821 227.92Z" fill="#9AB07F" stroke="#263238" stroke-linecap="round" stroke-linejoin="round"/>
<path d="M95.2158 243.771C94.6386 244.511 94.0392 245.251 93.4324 245.991" stroke="white" stroke-linecap="round" stroke-linejoin="round"/>
<path d="M104.281 229.726C102.003 233.913 99.4626 237.952 96.6736 241.817" stroke="white" stroke-linecap="round" stroke-linejoin="round"/>
<path d="M98.8566 234.41C98.8566 234.41 94.4166 240.33 89.7324 243.786" stroke="white" stroke-linecap="round" stroke-linejoin="round"/>
<path d="M135.257 313.997C130.321 309.32 129.581 306.36 129.581 306.36C129.416 306.207 129.285 306.02 129.197 305.812C128.864 306.16 127.857 306.819 125.393 305.872C123.254 305.05 121.227 303.652 119.088 302.712C118.578 303.622 118.082 304.192 117.001 306.36C114.781 310.8 114.041 311.792 118.977 313.272C123.913 314.752 129.337 319.192 130.077 319.68C130.817 320.168 138.217 320.916 139.941 320.176C141.666 319.436 140.193 318.681 135.257 313.997Z" fill="#9AB07F" stroke="#263238" stroke-linecap="round" stroke-linejoin="round"/>
<path d="M139.801 241.565L148.192 236.385" stroke="#263238" stroke-linecap="round" stroke-linejoin="round"/>
<path d="M39.553 194.664C39.553 194.664 66.2818 191.32 83.361 196.144L85.9584 261.124H45.88C45.88 261.124 48.4626 226.218 39.553 194.664Z" fill="#919191" stroke="#263238" stroke-linecap="round" stroke-linejoin="round"/>
<path d="M83.361 196.144C66.2818 191.32 39.553 194.664 39.553 194.664C42.4134 205.181 44.3131 215.935 45.2288 226.795C60.1538 234.248 73.8234 243.985 85.7438 255.655L83.361 196.144Z" fill="#757575" stroke="#263238" stroke-linecap="round" stroke-linejoin="round"/>
<path d="M133.762 321.9C133.46 321.901 133.165 321.809 132.916 321.637C132.667 321.465 132.477 321.221 132.371 320.938C126.451 304.984 124.971 263.566 124.882 261.812C124.869 261.419 125.011 261.038 125.279 260.75C125.547 260.463 125.918 260.294 126.311 260.28C126.703 260.266 127.085 260.409 127.372 260.677C127.66 260.945 127.829 261.316 127.842 261.708C127.842 262.138 129.382 304.399 135.146 319.902C135.283 320.27 135.267 320.677 135.103 321.034C134.94 321.39 134.641 321.667 134.273 321.804C134.111 321.868 133.937 321.901 133.762 321.9Z" fill="white" stroke="#263238" stroke-linecap="round" stroke-linejoin="round"/>
<path d="M101.535 321.9C101.234 321.899 100.94 321.807 100.693 321.635C100.446 321.463 100.257 321.22 100.152 320.938C94.2316 304.984 92.7516 263.566 92.6554 261.812C92.6416 261.419 92.7844 261.038 93.0522 260.75C93.3201 260.463 93.6911 260.294 94.0836 260.28C94.4761 260.266 94.858 260.409 95.1453 260.677C95.4326 260.945 95.6017 261.316 95.6154 261.708C95.6154 262.138 97.1546 304.399 102.927 319.902C103.063 320.27 103.048 320.677 102.884 321.034C102.72 321.39 102.421 321.667 102.053 321.804C101.888 321.868 101.713 321.901 101.535 321.9Z" fill="white" stroke="#263238" stroke-linecap="round" stroke-linejoin="round"/>
<path d="M133.363 261.094H45.177V258.134H130.418C131.203 258.134 131.956 258.446 132.511 259.001C133.066 259.556 133.378 260.309 133.378 261.094H133.363Z" fill="#919191" stroke="#263238" stroke-linecap="round" stroke-linejoin="round"/>
<path d="M133.355 260.376H45.177V263.314H133.355V260.376Z" fill="white" stroke="#263238" stroke-linecap="round" stroke-linejoin="round"/>
<path d="M82.7024 321.9C82.4797 321.905 82.2587 321.859 82.0561 321.766C81.8534 321.674 81.6743 321.537 81.532 321.365C81.3897 321.194 81.288 320.993 81.2344 320.776C81.1808 320.56 81.1767 320.335 81.2224 320.116C89.5918 280.467 81.9624 197.092 81.8588 196.255C81.8408 196.061 81.8613 195.865 81.9191 195.679C81.9769 195.492 82.0708 195.319 82.1955 195.169C82.3202 195.019 82.4733 194.894 82.646 194.803C82.8187 194.712 83.0076 194.656 83.2019 194.638C83.5944 194.602 83.9853 194.723 84.2885 194.975C84.5918 195.227 84.7825 195.589 84.8188 195.982C84.9002 196.825 92.5888 280.638 84.1306 320.723C84.0617 321.053 83.8827 321.348 83.6231 321.562C83.3635 321.776 83.0388 321.895 82.7024 321.9Z" fill="white" stroke="#263238" stroke-linecap="round" stroke-linejoin="round"/>
<path d="M36.8224 320.82C36.6845 320.821 36.5472 320.801 36.4154 320.76C36.0392 320.653 35.7206 320.402 35.5293 320.061C35.3379 319.72 35.2894 319.317 35.3942 318.94C54.6342 250.638 38.3024 195.641 38.1396 195.094C38.0463 194.725 38.0983 194.335 38.2847 194.004C38.4711 193.673 38.7776 193.426 39.1409 193.315C39.5042 193.204 39.8963 193.237 40.2361 193.406C40.5759 193.576 40.8374 193.87 40.9664 194.228C41.1366 194.783 57.7496 250.564 38.2432 319.739C38.1562 320.049 37.9704 320.323 37.714 320.518C37.4576 320.713 37.1445 320.819 36.8224 320.82Z" fill="white" stroke="#263238" stroke-linecap="round" stroke-linejoin="round"/>
<path d="M307.381 198.801C307.381 198.801 298.287 193.747 297.613 205.202C296.94 216.657 295.26 291.109 295.26 291.109" stroke="#263238" stroke-width="2" stroke-linecap="round" stroke-linejoin="round"/>
<path d="M292.892 206.208C292.892 206.208 300.292 222.718 296.94 290.102" stroke="#263238" stroke-width="2" stroke-linecap="round" stroke-linejoin="round"/>
<path d="M300.181 201.11C300.181 201.11 296.696 203.33 294.72 200.784C292.744 198.239 296.059 193.562 293.136 191.564C290.213 189.566 285.159 192.615 285.159 192.615C285.159 192.615 289.044 193.754 288.918 195.878C288.792 198.002 286.92 198.801 286.698 197.876C286.476 196.951 284.589 192.274 281.437 194.22C280.526 194.757 279.733 195.473 279.108 196.326C278.482 197.178 278.035 198.149 277.796 199.178C277.796 199.178 285.144 198.394 285.588 201.154C286.032 203.914 282.576 200.673 279.542 200.496C276.508 200.318 273.741 200.762 273.941 202.597C274.008 204.221 273.911 205.847 273.652 207.452C275.313 206.072 277.413 205.332 279.572 205.365C282.909 205.565 282.784 207.688 279.75 207.511C276.716 207.333 274.111 210.219 274.111 210.219C274.111 210.219 276.878 214.948 280.393 217.286C283.908 219.625 285.174 218.766 285.573 216.983C285.973 215.199 285.041 210.56 287.164 210.685C289.288 210.811 283.649 218.692 286.358 219.158C289.066 219.625 291.249 218.84 291.96 217.057L292.7 215.273C292.7 215.273 291.752 210.648 292.167 208.85C292.581 207.052 293.077 208.902 293.558 211.07C294.039 213.238 294.342 218.418 295.267 218.167C296.192 217.915 299.16 214.141 299.855 212.654C300.551 211.166 295.948 206.645 296 205.735C296.052 204.825 299.604 206.556 300.159 207.503C300.562 208.223 300.925 208.964 301.247 209.723C301.247 209.723 303.467 208.332 303.407 204.07C303.348 199.807 300.181 201.11 300.181 201.11Z" fill="#9AB07F"/>
<path opacity="0.3" d="M300.181 201.11C300.181 201.11 296.696 203.33 294.72 200.784C292.744 198.239 296.059 193.562 293.136 191.564C290.213 189.566 285.159 192.615 285.159 192.615C285.159 192.615 289.044 193.754 288.918 195.878C288.792 198.002 286.92 198.801 286.698 197.876C286.476 196.951 284.589 192.274 281.437 194.22C280.526 194.757 279.733 195.473 279.108 196.326C278.482 197.178 278.035 198.149 277.796 199.178C277.796 199.178 285.144 198.394 285.588 201.154C286.032 203.914 282.576 200.673 279.542 200.496C276.508 200.318 273.741 200.762 273.941 202.597C274.008 204.221 273.911 205.847 273.652 207.452C275.313 206.072 277.413 205.332 279.572 205.365C282.909 205.565 282.784 207.688 279.75 207.511C276.716 207.333 274.111 210.219 274.111 210.219C274.111 210.219 276.878 214.948 280.393 217.286C283.908 219.625 285.174 218.766 285.573 216.983C285.973 215.199 285.041 210.56 287.164 210.685C289.288 210.811 283.649 218.692 286.358 219.158C289.066 219.625 291.249 218.84 291.96 217.057L292.7 215.273C292.7 215.273 291.752 210.648 292.167 208.85C292.581 207.052 293.077 208.902 293.558 211.07C294.039 213.238 294.342 218.418 295.267 218.167C296.192 217.915 299.16 214.141 299.855 212.654C300.551 211.166 295.948 206.645 296 205.735C296.052 204.825 299.604 206.556 300.159 207.503C300.562 208.223 300.925 208.964 301.247 209.723C301.247 209.723 303.467 208.332 303.407 204.07C303.348 199.807 300.181 201.11 300.181 201.11Z" fill="#263238"/>
<path d="M282.539 211.107C284.811 208.303 288.149 204.506 290.953 202.693" stroke="#263238" stroke-linecap="round" stroke-linejoin="round"/>
<path d="M279.912 214.519C279.912 214.519 280.49 213.712 281.437 212.498" stroke="#263238" stroke-linecap="round" stroke-linejoin="round"/>
<path d="M292.433 203.389C292.433 203.389 295.808 208.155 296.429 213.061" stroke="#263238" stroke-linecap="round" stroke-linejoin="round"/>
<path d="M288.6 206.208C288.6 206.208 289.547 205.653 289.192 211.721" stroke="#263238" stroke-linecap="round" stroke-linejoin="round"/>
<path d="M291.079 200.54C291.079 200.54 293.01 198.831 291.989 195.419" stroke="#263238" stroke-linecap="round" stroke-linejoin="round"/>
<path d="M288.474 203.463L287.098 200.947" stroke="#263238" stroke-linecap="round" stroke-linejoin="round"/>
<path d="M285.581 206.031C285.581 206.031 281.215 202.73 278.484 202.568" stroke="#263238" stroke-linecap="round" stroke-linejoin="round"/>
<path d="M312.583 192.119C312.583 192.119 312.443 197.121 308.536 197.365C304.628 197.61 302.216 191.098 298.22 192.666C294.224 194.235 293.839 201.369 293.839 201.369C293.839 201.369 297.628 198.253 299.67 199.822C301.713 201.391 301.239 203.818 300.137 203.433C299.034 203.049 293.099 201.724 292.892 206.208C292.809 207.487 292.986 208.769 293.412 209.977C293.838 211.185 294.504 212.295 295.371 213.238C295.371 213.238 299.596 205.343 302.675 206.778C305.753 208.214 300.137 209.472 297.887 212.387C295.637 215.303 294.187 218.374 296.178 219.432C297.849 220.467 299.411 221.67 300.84 223.021C300.84 223.021 300.307 218.892 302.778 215.688C305.25 212.484 307.285 214.052 305.043 216.968C302.801 219.884 303.911 224.464 303.911 224.464C303.911 224.464 310.526 224.916 315.262 222.984C319.998 221.053 320.028 219.218 318.503 217.582C316.979 215.947 311.71 213.742 313.279 211.662C314.848 209.583 318.903 220.638 321.219 218.241C323.535 215.843 324.231 213.127 322.929 211.196L321.626 209.272C321.626 209.272 316.357 207.052 314.833 205.424C313.309 203.796 315.506 204.551 318 205.542C320.494 206.534 325.889 209.768 326.273 208.665C326.658 207.563 324.89 202.005 323.883 200.318C322.877 198.631 315.196 200.133 314.322 199.46C313.449 198.786 317.601 196.411 318.925 196.5C319.918 196.582 320.907 196.718 321.885 196.907C321.885 196.907 322.004 193.739 317.697 190.89C313.39 188.041 312.583 192.119 312.583 192.119Z" fill="#9AB07F"/>
<path opacity="0.2" d="M312.583 192.119C312.583 192.119 312.443 197.121 308.536 197.365C304.628 197.61 302.216 191.098 298.22 192.666C294.224 194.235 293.839 201.369 293.839 201.369C293.839 201.369 297.628 198.253 299.67 199.822C301.713 201.391 301.239 203.818 300.137 203.433C299.034 203.049 293.099 201.724 292.892 206.208C292.809 207.487 292.986 208.769 293.412 209.977C293.838 211.185 294.504 212.295 295.371 213.238C295.371 213.238 299.596 205.343 302.675 206.778C305.753 208.214 300.137 209.472 297.887 212.387C295.637 215.303 294.187 218.374 296.178 219.432C297.849 220.467 299.411 221.67 300.84 223.021C300.84 223.021 300.307 218.892 302.778 215.688C305.25 212.484 307.285 214.052 305.043 216.968C302.801 219.884 303.911 224.464 303.911 224.464C303.911 224.464 310.526 224.916 315.262 222.984C319.998 221.053 320.028 219.218 318.503 217.582C316.979 215.947 311.71 213.742 313.279 211.662C314.848 209.583 318.903 220.638 321.219 218.241C323.535 215.843 324.231 213.127 322.929 211.196L321.626 209.272C321.626 209.272 316.357 207.052 314.833 205.424C313.309 203.796 315.506 204.551 318 205.542C320.494 206.534 325.889 209.768 326.273 208.665C326.658 207.563 324.89 202.005 323.883 200.318C322.877 198.631 315.196 200.133 314.322 199.46C313.449 198.786 317.601 196.411 318.925 196.5C319.918 196.582 320.907 196.718 321.885 196.907C321.885 196.907 322.004 193.739 317.697 190.89C313.39 188.041 312.583 192.119 312.583 192.119Z" fill="#263238"/>
<path d="M310.571 216.591C309.32 212.38 307.781 206.46 307.884 202.434" stroke="#263238" stroke-linecap="round" stroke-linejoin="round"/>
<path d="M312.191 221.556C312.191 221.556 311.777 220.416 311.207 218.648" stroke="#263238" stroke-linecap="round" stroke-linejoin="round"/>
<path d="M309.586 201.428C309.586 201.428 316.653 201.295 321.989 204.018" stroke="#263238" stroke-linecap="round" stroke-linejoin="round"/>
<path d="M309.808 207.2C309.808 207.2 309.897 205.875 315.728 210.367" stroke="#263238" stroke-linecap="round" stroke-linejoin="round"/>
<path d="M305.842 200.858C305.842 200.858 305.442 197.765 301.335 196.463" stroke="#263238" stroke-linecap="round" stroke-linejoin="round"/>
<path d="M306.959 205.439L303.504 205.098" stroke="#263238" stroke-linecap="round" stroke-linejoin="round"/>
<path d="M307.559 210.086C307.559 210.086 301.276 212.21 299.256 214.837" stroke="#263238" stroke-linecap="round" stroke-linejoin="round"/>
<path d="M270.662 225.419C270.662 225.419 290.539 238.554 290.206 289.429" stroke="#263238" stroke-width="2" stroke-linecap="round" stroke-linejoin="round"/>
<path d="M295.171 221.948C295.171 221.948 294.535 227.705 289.991 227.617C285.448 227.528 283.331 219.787 278.536 221.223C273.741 222.659 272.653 230.843 272.653 230.843C272.653 230.843 277.33 227.602 279.535 229.615C281.74 231.627 280.963 234.373 279.727 233.825C278.492 233.278 271.765 231.183 271.106 236.341C270.892 237.809 270.979 239.305 271.36 240.739C271.742 242.173 272.411 243.514 273.326 244.681C273.326 244.681 278.95 235.971 282.362 237.925C285.773 239.878 279.18 240.789 276.309 243.941C273.437 247.093 271.491 250.497 273.667 251.903C275.501 253.257 277.192 254.794 278.714 256.491C278.714 256.491 278.484 251.681 281.637 248.211C284.789 244.74 287.002 246.731 284.13 249.905C281.259 253.08 282.118 258.445 282.118 258.445C282.118 258.445 289.717 259.592 295.364 257.816C301.01 256.04 301.21 253.924 299.604 251.896C297.998 249.868 292.13 246.82 294.135 244.614C296.141 242.409 299.774 255.507 302.675 252.954C305.576 250.401 306.626 247.345 305.309 244.992L303.992 242.639C303.992 242.639 298.124 239.597 296.518 237.562C294.912 235.527 297.376 236.622 300.159 237.999C302.941 239.375 308.869 243.615 309.409 242.387C309.949 241.159 308.439 234.587 307.44 232.523C306.441 230.458 297.436 231.487 296.488 230.628C295.541 229.77 300.566 227.424 302.083 227.668C303.212 227.857 304.331 228.104 305.435 228.408C305.435 228.408 305.864 224.768 301.165 221.068C296.466 217.368 295.171 221.948 295.171 221.948Z" fill="#9AB07F"/>
<path opacity="0.3" d="M295.171 221.948C295.171 221.948 294.535 227.705 289.991 227.617C285.448 227.528 283.331 219.787 278.536 221.223C273.741 222.659 272.653 230.843 272.653 230.843C272.653 230.843 277.33 227.602 279.535 229.615C281.74 231.627 280.963 234.373 279.727 233.825C278.492 233.278 271.765 231.183 271.106 236.341C270.892 237.809 270.979 239.305 271.36 240.739C271.742 242.173 272.411 243.514 273.326 244.681C273.326 244.681 278.95 235.971 282.362 237.925C285.773 239.878 279.18 240.789 276.309 243.941C273.437 247.093 271.491 250.497 273.667 251.903C275.501 253.257 277.192 254.794 278.714 256.491C278.714 256.491 278.484 251.681 281.637 248.211C284.789 244.74 287.002 246.731 284.13 249.905C281.259 253.08 282.118 258.445 282.118 258.445C282.118 258.445 289.717 259.592 295.364 257.816C301.01 256.04 301.21 253.924 299.604 251.896C297.998 249.868 292.13 246.82 294.135 244.614C296.141 242.409 299.774 255.507 302.675 252.954C305.576 250.401 306.626 247.345 305.309 244.992L303.992 242.639C303.992 242.639 298.124 239.597 296.518 237.562C294.912 235.527 297.376 236.622 300.159 237.999C302.941 239.375 308.869 243.615 309.409 242.387C309.949 241.159 308.439 234.587 307.44 232.523C306.441 230.458 297.436 231.487 296.488 230.628C295.541 229.77 300.566 227.424 302.083 227.668C303.212 227.857 304.331 228.104 305.435 228.408C305.435 228.408 305.864 224.768 301.165 221.068C296.466 217.368 295.171 221.948 295.171 221.948Z" fill="#263238"/>
<path d="M290.539 249.994C289.473 245.051 288.282 238.058 288.77 233.403" stroke="#263238" stroke-linecap="round" stroke-linejoin="round"/>
<path d="M291.945 255.877C291.945 255.877 291.575 254.523 291.079 252.429" stroke="#263238" stroke-linecap="round" stroke-linejoin="round"/>
<path d="M290.82 232.404C290.82 232.404 298.96 232.922 304.88 236.563" stroke="#263238" stroke-linecap="round" stroke-linejoin="round"/>
<path d="M290.546 239.02C290.546 239.02 290.776 237.503 297.08 243.238" stroke="#263238" stroke-linecap="round" stroke-linejoin="round"/>
<path d="M286.565 231.398C286.565 231.398 286.395 227.787 281.785 225.892" stroke="#263238" stroke-linecap="round" stroke-linejoin="round"/>
<path d="M287.423 236.785L283.472 236.067" stroke="#263238" stroke-linecap="round" stroke-linejoin="round"/>
<path d="M287.682 242.202C287.682 242.202 280.231 244.067 277.648 246.901" stroke="#263238" stroke-linecap="round" stroke-linejoin="round"/>
<path d="M278.41 265.505C278.41 265.505 291.212 275.273 292.559 289.762L289.865 241.24" stroke="#263238" stroke-width="2" stroke-linecap="round" stroke-linejoin="round"/>
<path d="M309.401 258.43C292.559 255.396 292.559 289.762 292.559 289.762" stroke="#263238" stroke-width="2" stroke-linecap="round" stroke-linejoin="round"/>
<path d="M294.579 289.429C294.579 289.429 284.811 218.344 313.079 218.344" stroke="#263238" stroke-width="2" stroke-linecap="round" stroke-linejoin="round"/>
<path d="M302.986 256.388C300.684 253.798 295.793 253.798 292.922 260.413C290.05 267.029 292.633 265.882 292.633 265.882C292.633 265.882 298.094 264.15 301.55 263.003C305.006 261.856 309.601 258.978 309.89 260.702C310.178 262.426 307.588 264.15 304.421 264.728C301.254 265.305 292.922 267.606 293.78 269.36C294.638 271.114 296.659 276.264 296.659 276.264C299.115 274.177 301.709 272.256 304.421 270.514C308.166 268.213 310.467 269.071 308.454 271.661C306.441 274.251 300.684 277.123 301.839 280.578C302.993 284.034 309.89 288.341 309.89 288.341C309.89 288.341 310.756 281.156 312.768 278.854C314.781 276.553 314.781 279.143 314.204 283.168C313.915 284.883 313.723 286.612 313.627 288.348L321.678 291.227C322.995 289.222 324.436 287.302 325.992 285.477L327.472 283.997C327.472 283.997 321.145 278.536 320.857 275.117C320.568 271.698 325.171 275.117 326.606 275.694C328.042 276.272 330.343 280.297 330.343 280.297C330.343 280.297 331.786 273.682 332.075 271.38L332.364 269.079C332.364 269.079 326.318 266.777 324.016 266.777C321.715 266.777 320.568 268.502 320.568 266.208C320.568 263.914 322.869 262.463 325.459 262.752C327.803 263.144 330.111 263.72 332.364 264.476C332.364 264.476 334.088 263.04 333.511 258.726C332.933 254.412 331.498 254.412 328.049 255.559C324.601 256.706 322.292 259.303 319.702 259.303C317.112 259.303 318.555 256.136 320.279 255.278C322.004 254.419 326.318 252.688 327.184 252.399C328.049 252.111 322.581 248.085 319.702 247.508C316.824 246.931 313.101 248.988 313.375 251.822C313.915 257.823 305.287 259 302.986 256.388Z" fill="#9AB07F"/>
<path d="M321.5 286.003C321.589 286.866 321.648 287.732 321.678 288.6" stroke="#263238" stroke-linecap="round" stroke-linejoin="round"/>
<path d="M315.721 265.357C318.256 271.051 320.083 277.036 321.16 283.176" stroke="#263238" stroke-linecap="round" stroke-linejoin="round"/>
<path d="M314.685 263.048C313.264 259.984 312.191 258.112 312.191 258.112C313.761 257.373 315.065 256.169 315.928 254.664C316.601 253.3 317.588 252.116 318.807 251.208" stroke="#263238" stroke-linecap="round" stroke-linejoin="round"/>
<path d="M302.127 267.88C302.127 267.88 312.487 263.566 312.487 264.424" stroke="#263238" stroke-linecap="round" stroke-linejoin="round"/>
<path d="M318.2 262.426C318.2 262.426 322.803 260.125 326.828 260.125" stroke="#263238" stroke-linecap="round" stroke-linejoin="round"/>
<path d="M316.505 269.36C314.509 271.001 312.677 272.832 311.037 274.829C309.359 276.808 308 279.038 307.011 281.437" stroke="#263238" stroke-linecap="round" stroke-linejoin="round"/>
<path d="M319.68 270.485C319.68 270.485 325.726 268.753 328.886 271.632" stroke="#263238" stroke-linecap="round" stroke-linejoin="round"/>
<path d="M330.61 231.62C327.48 229.77 324.016 229.726 322.314 227.772C320.612 225.818 323.95 224.812 325.733 225.552C327.517 226.292 331.653 228.416 332.43 228.875C333.207 229.333 332.674 222.577 331.224 219.995C329.774 217.412 325.8 215.962 323.824 218.048C319.643 222.437 313.116 216.679 313.56 213.246C314.004 209.812 310.8 206.12 303.94 208.28C297.08 210.441 299.626 211.647 299.626 211.647C299.626 211.647 304.51 214.644 307.648 216.494C310.785 218.344 315.965 219.935 314.848 221.282C313.73 222.629 310.733 221.808 308.225 219.802C305.716 217.797 298.516 213.002 297.776 214.785C297.036 216.568 294.446 221.482 294.446 221.482C297.634 221.971 300.786 222.67 303.881 223.576C308.069 224.893 308.928 227.195 305.657 227.372C302.386 227.55 296.437 225.093 294.557 228.223C292.677 231.354 293.972 239.39 293.972 239.39C293.972 239.39 299.966 235.335 303.023 235.342C306.079 235.35 304.125 237.052 300.706 239.257C299.224 240.162 297.793 241.15 296.422 242.217L299.53 250.187C301.907 249.865 304.302 249.692 306.7 249.669L308.728 249.817C308.728 249.817 308.728 241.455 311.126 238.976C313.523 236.497 313.952 242.232 314.463 243.697C314.974 245.162 313.442 249.535 313.442 249.535C313.442 249.535 319.362 246.287 321.301 244.992L323.232 243.704C323.232 243.704 321.012 237.629 319.495 235.897C317.978 234.166 315.936 234.417 317.667 232.937C319.399 231.457 322.004 232.197 323.484 234.373C324.724 236.397 325.801 238.518 326.703 240.715C326.703 240.715 328.923 241.077 331.801 237.814C334.68 234.55 333.74 233.47 330.61 231.62ZM303.4 240.826C301.099 239.671 306.56 237.37 306.56 237.37C308.58 237.089 305.694 241.98 303.4 240.826ZM307.27 230.088C306.293 229.6 309.231 228.608 309.231 228.608C313.479 229.4 308.247 230.577 307.263 230.088H307.27Z" fill="#9AB07F"/>
<path d="M303.326 246.686C302.734 247.315 302.112 247.93 301.483 248.522" stroke="#263238" stroke-linecap="round" stroke-linejoin="round"/>
<path d="M315.129 228.786C312.486 234.429 309.158 239.725 305.22 244.555" stroke="#263238" stroke-linecap="round" stroke-linejoin="round"/>
<path d="M316.195 226.492C317.578 223.406 318.281 221.371 318.281 221.371C319.872 222.069 321.638 222.265 323.343 221.933C324.811 221.545 326.351 221.512 327.835 221.837" stroke="#263238" stroke-linecap="round" stroke-linejoin="round"/>
<path d="M313.693 225.737C314.345 225.167 304.303 220.18 304.303 220.18" stroke="#263238" stroke-linecap="round" stroke-linejoin="round"/>
<path d="M318.984 228.756C318.984 228.756 323.743 230.724 326.384 233.766" stroke="#263238" stroke-linecap="round" stroke-linejoin="round"/>
<path d="M312.643 231.983C310.096 231.551 307.514 231.367 304.932 231.435C302.334 231.467 299.758 231.904 297.295 232.73" stroke="#263238" stroke-linecap="round" stroke-linejoin="round"/>
<path d="M313.849 235.128C313.849 235.128 319.11 238.554 319.029 242.831" stroke="#263238" stroke-linecap="round" stroke-linejoin="round"/>
<path d="M285.914 271.469C283.398 269.989 280.608 269.952 279.254 268.376C277.9 266.8 280.564 266.008 281.999 266.6C283.435 267.192 286.765 268.909 287.394 269.279C288.023 269.649 287.586 264.202 286.417 262.152C285.248 260.103 282.051 258.911 280.46 260.584C277.093 264.121 271.839 259.481 272.202 256.721C272.564 253.961 269.982 250.986 264.439 252.725C258.896 254.464 260.968 255.433 260.968 255.433C260.968 255.433 264.898 257.846 267.421 259.333C269.945 260.82 274.118 262.108 273.215 263.188C272.313 264.269 269.908 263.618 267.887 261.997C265.867 260.376 260.073 256.521 259.481 257.957C258.889 259.392 256.802 263.344 256.802 263.344C259.367 263.739 261.903 264.303 264.395 265.031C267.762 266.089 268.45 267.939 265.815 268.08C263.181 268.22 258.415 266.245 256.935 268.768C255.455 271.291 256.462 277.759 256.462 277.759C256.462 277.759 261.287 274.488 263.743 274.496C266.2 274.503 264.631 275.872 261.886 277.648C260.693 278.377 259.541 279.172 258.438 280.031L260.931 286.439C262.845 286.182 264.773 286.046 266.703 286.032L268.339 286.143C268.339 286.143 268.339 279.417 270.27 277.419C272.202 275.421 272.542 280.038 272.949 281.222C273.356 282.406 272.128 285.921 272.128 285.921C272.128 285.921 276.908 283.302 278.455 282.266L280.009 281.222C280.009 281.222 278.218 276.338 277.004 274.94C275.791 273.541 274.133 273.756 275.524 272.542C276.915 271.328 279.01 271.965 280.201 273.689C281.2 275.32 282.069 277.027 282.798 278.795C282.798 278.795 284.582 279.084 286.898 276.464C289.214 273.844 288.437 272.964 285.914 271.469ZM264.01 278.869C262.16 277.944 266.555 276.094 266.555 276.094C268.176 275.872 265.86 279.809 264.01 278.876V278.869ZM267.14 270.241C266.348 269.841 268.716 269.057 268.716 269.057C272.128 269.715 267.917 270.633 267.14 270.241Z" fill="#9AB07F"/>
<path d="M263.965 283.598C263.484 284.101 262.989 284.597 262.485 285.078" stroke="#263238" stroke-linecap="round" stroke-linejoin="round"/>
<path d="M273.46 269.19C271.334 273.731 268.658 277.994 265.49 281.881" stroke="#263238" stroke-linecap="round" stroke-linejoin="round"/>
<path d="M274.318 267.34C275.428 264.861 275.998 263.225 275.998 263.225C277.277 263.785 278.697 263.943 280.068 263.677C281.248 263.364 282.487 263.339 283.679 263.603" stroke="#263238" stroke-linecap="round" stroke-linejoin="round"/>
<path d="M264.742 262.263C264.742 262.263 272.831 266.282 272.305 266.703" stroke="#263238" stroke-linecap="round" stroke-linejoin="round"/>
<path d="M276.56 269.167C276.56 269.167 280.386 270.751 282.48 273.2" stroke="#263238" stroke-linecap="round" stroke-linejoin="round"/>
<path d="M271.454 271.765C269.406 271.418 267.329 271.272 265.253 271.328C263.163 271.348 261.09 271.7 259.111 272.372" stroke="#263238" stroke-linecap="round" stroke-linejoin="round"/>
<path d="M272.431 274.296C272.431 274.296 276.664 277.056 276.582 280.49" stroke="#263238" stroke-linecap="round" stroke-linejoin="round"/>
<path d="M275.643 223.976C275.643 223.976 272.475 226.277 270.463 223.976C268.45 221.674 271.328 217.072 268.45 215.347C265.571 213.623 260.976 216.783 260.976 216.783C260.976 216.783 264.713 217.649 264.713 219.662C264.713 221.674 262.989 222.54 262.7 221.674C262.411 220.809 260.399 216.494 257.52 218.515C256.691 219.073 255.983 219.794 255.44 220.633C254.897 221.473 254.53 222.413 254.36 223.399C254.36 223.399 261.257 222.252 261.834 224.842C262.411 227.432 258.963 224.553 256.084 224.553C253.206 224.553 250.616 225.13 250.904 226.854C251.061 228.385 251.061 229.927 250.904 231.457C252.394 230.062 254.334 229.246 256.373 229.156C259.533 229.156 259.533 231.169 256.662 231.169C253.79 231.169 251.482 234.047 251.482 234.047C251.482 234.047 254.36 238.361 257.809 240.374C261.257 242.387 262.411 241.521 262.7 239.797C262.989 238.073 261.834 233.759 263.847 233.759C265.86 233.759 260.976 241.521 263.558 241.81C266.141 242.098 268.161 241.233 268.738 239.508L269.316 237.784C269.316 237.784 268.161 233.47 268.45 231.746C268.738 230.022 269.316 231.746 269.885 233.759C270.455 235.771 271.04 240.655 271.906 240.374C272.771 240.093 275.354 236.341 275.931 234.906C276.508 233.47 271.906 229.444 271.906 228.579C271.906 227.713 275.354 229.156 275.931 230.014C276.508 230.873 277.078 232.027 277.078 232.027C277.078 232.027 279.091 230.591 278.802 226.566C278.514 222.54 275.643 223.976 275.643 223.976Z" fill="#9AB07F"/>
<path d="M259.525 234.41C261.516 231.635 264.469 227.861 267.014 225.989" stroke="#263238" stroke-linecap="round" stroke-linejoin="round"/>
<path d="M257.231 237.784C257.231 237.784 257.742 236.985 258.563 235.786" stroke="#263238" stroke-linecap="round" stroke-linejoin="round"/>
<path d="M268.45 226.566C268.45 226.566 271.906 230.88 272.764 235.483" stroke="#263238" stroke-linecap="round" stroke-linejoin="round"/>
<path d="M265.001 229.444C265.001 229.444 265.86 228.867 265.86 234.624" stroke="#263238" stroke-linecap="round" stroke-linejoin="round"/>
<path d="M267.014 223.976C267.014 223.976 268.738 222.252 267.591 219.084" stroke="#263238" stroke-linecap="round" stroke-linejoin="round"/>
<path d="M264.713 226.854L263.277 224.553" stroke="#263238" stroke-linecap="round" stroke-linejoin="round"/>
<path d="M262.123 229.444C262.123 229.444 257.809 226.566 255.219 226.566" stroke="#263238" stroke-linecap="round" stroke-linejoin="round"/>
<path d="M304.688 288.415H282.451V320.42H304.688V288.415Z" fill="#263238" stroke="#263238" stroke-width="2" stroke-linecap="round" stroke-linejoin="round"/>
</svg>
