<svg width="25" height="26" viewBox="0 0 25 26" fill="none" xmlns="http://www.w3.org/2000/svg">
<g clip-path="url(#clip0_12_920)">
<path fill-rule="evenodd" clip-rule="evenodd" d="M21.3524 3.65004C20.1995 2.48959 18.8279 1.56944 17.3168 0.942896C15.8058 0.316357 14.1855 -0.00411749 12.5497 3.99367e-05C5.69056 3.99367e-05 0.106741 5.58247 0.103969 12.4444C0.103969 14.6375 0.67649 16.7778 1.7647 18.6659L0 25.1133L6.59716 23.3819C8.42202 24.3753 10.4665 24.8962 12.5442 24.8971H12.5497C19.4075 24.8971 24.9913 19.3147 24.9941 12.4527C24.9988 10.8176 24.6794 9.1978 24.0543 7.68688C23.4293 6.17596 22.5109 4.80391 21.3524 3.65004ZM12.5497 22.7969H12.5456C10.6929 22.7971 8.87426 22.2987 7.28058 21.3538L6.90353 21.1293L2.98876 22.1565L4.0326 18.3401L3.78723 17.9492C2.75141 16.3002 2.20307 14.3918 2.20552 12.4444C2.2083 6.74137 6.84807 2.10159 12.5539 2.10159C13.9128 2.09858 15.2587 2.3651 16.5139 2.88573C17.7691 3.40636 18.9086 4.17077 19.8663 5.13471C20.8293 6.09405 21.5925 7.23473 22.1119 8.49082C22.6313 9.7469 22.8967 11.0935 22.8925 12.4527C22.8898 18.1558 18.25 22.7969 12.5497 22.7969ZM18.2236 15.0492C17.9117 14.8925 16.3841 14.1412 16.0985 14.0372C15.8143 13.9332 15.6078 13.8819 15.3999 14.1925C15.1919 14.503 14.5958 15.203 14.4142 15.411C14.2326 15.6189 14.051 15.6439 13.7405 15.4886C13.43 15.3334 12.4277 15.0048 11.2397 13.9457C10.3151 13.1209 9.69127 12.1034 9.50968 11.7915C9.32808 11.4796 9.49027 11.3118 9.64691 11.1566C9.78692 11.018 9.95743 10.7934 10.1127 10.6118C10.268 10.4302 10.3192 10.3013 10.4232 10.0933C10.5272 9.88539 10.4759 9.70379 10.3969 9.54853C10.3192 9.39188 9.69682 7.86146 9.43759 7.23904C9.18668 6.63602 8.93022 6.71642 8.73892 6.7081C8.54079 6.7 8.34251 6.6963 8.14422 6.69701C7.98654 6.70103 7.83139 6.73758 7.6885 6.80438C7.54562 6.87117 7.41807 6.96676 7.31386 7.08516C7.02829 7.39707 6.22565 8.14842 6.22565 9.67884C6.22565 11.2093 7.34019 12.6884 7.49545 12.8963C7.65071 13.1043 9.6885 16.2441 12.8076 17.5916C13.5506 17.9118 14.13 18.1031 14.5806 18.2472C15.325 18.4843 16.0029 18.4496 16.5393 18.3706C17.1368 18.2819 18.3789 17.6193 18.6381 16.8929C18.8974 16.1665 18.8974 15.5441 18.8197 15.4138C18.7421 15.2834 18.5328 15.2044 18.2236 15.0492Z" fill="white"/>
</g>
<defs>
<clipPath id="clip0_12_920">
<rect width="24.9941" height="25.1133" fill="white"/>
</clipPath>
</defs>
</svg>
